<mxfile host="app.diagrams.net" modified="2024-07-05T12:14:06.983Z" agent="Mozilla/5.0 (Windows NT 10.0; Win64; x64) AppleWebKit/537.36 (KHTML, like Gecko) Chrome/125.0.0.0 Safari/537.36 Edg/125.0.0.0" version="24.6.4" etag="9SjfvKoG-Qpgdh8d7vip" type="github">
  <diagram name="Page-1" id="iV6I_k2LypQGsKEFXyBU">
    <mxGraphModel>
      <root>
        <mxCell id="0" />
        <mxCell id="1" parent="0" />
      </root>
    </mxGraphModel>
  </diagram>
</mxfile>
